<svg version="1.2" xmlns="http://www.w3.org/2000/svg" viewBox="0 0 4000 4000" width="500" height="500"><defs><clipPath clipPathUnits="userSpaceOnUse" id="cp1"><path d="m2231.49 1928.61l-229.21 55.75c82.08 76.76 253.64 44.9 360.57-2.74-7.14-26.86-11.98-54.05-14.85-81.35z"/></clipPath><linearGradient id="P" gradientUnits="userSpaceOnUse"/><linearGradient id="g1" x2="1" href="#P" gradientTransform="matrix(-128.934,-206.968,247.398,-154.121,2147.35,2062.192)"><stop stop-color="#008a80"/><stop offset="1" stop-color="#ebf855"/></linearGradient><clipPath clipPathUnits="userSpaceOnUse" id="cp2"><path d="m2153.64 1844.45l-288.64 22c95.23 123.64 356.84 101.58 487.67 52.39-5.16-29.48-7.97-59.22-8.78-88.9z"/></clipPath><linearGradient id="g2" x2="1" href="#P" gradientTransform="matrix(-374.765,98.538,-53.638,-203.999,2126.307,1992.415)"><stop stop-color="#008a80"/><stop offset="1" stop-color="#ebf855"/></linearGradient><clipPath clipPathUnits="userSpaceOnUse" id="cp3"><path d="m2063.36 1714.63l-366.11-40.77c99.3 195.82 495.02 217.11 647.15 169.15-1.52-32.45-0.63-64.87 2.15-96.84z"/></clipPath><linearGradient id="g3" x2="1" href="#P" gradientTransform="matrix(-370.378,-9.996,3.58,-132.642,1946.103,1889.899)"><stop stop-color="#008a80"/><stop offset="1" stop-color="#ebf855"/></linearGradient><clipPath clipPathUnits="userSpaceOnUse" id="cp4"><path d="m2027.93 1558.43l-400.59-133.8c68.53 259.81 563.43 377.95 717.82 339.98 1.63-25.58 4.5-50.93 8.37-75.82l-7.1-23.98z"/></clipPath><linearGradient id="g4" x2="1" href="#P" gradientTransform="matrix(-558.068,-113.022,73.921,-364.998,2001.698,1824.78)"><stop stop-color="#008a80"/><stop offset="1" stop-color="#ebf855"/></linearGradient><clipPath clipPathUnits="userSpaceOnUse" id="cp5"><path d="m2075.98 1415.39l-361.82-217.87c10.58 276.57 495.43 505 639.99 487.28 3.32-20.79 7.35-41.23 11.88-61.23l-2.39-34.97z"/></clipPath><linearGradient id="g5" x2="1" href="#P" gradientTransform="matrix(-413.526,-467.591,474.933,-420.019,1920.193,1788.126)"><stop stop-color="#008a80"/><stop offset="1" stop-color="#ebf855"/></linearGradient><clipPath clipPathUnits="userSpaceOnUse" id="cp6"><path d="m2160.13 1318.05l-294.73-266c-39.82 256.59 364.87 553.76 502.22 564.47 7.22-30.95 15.66-60.74 24.69-88.92z"/></clipPath><linearGradient id="g6" x2="1" href="#P" gradientTransform="matrix(-468.712,-566.433,566.646,-468.889,2000.326,1824.972)"><stop stop-color="#008a80"/><stop offset="1" stop-color="#ebf855"/></linearGradient><clipPath clipPathUnits="userSpaceOnUse" id="cp7"><path d="m2266.08 1255.97l-213.98-281.29c-74.61 210.77 208.34 523.32 334.09 572.54 9.9-32.79 20.74-63.6 31.65-91.76z"/></clipPath><linearGradient id="g7" x2="1" href="#P" gradientTransform="matrix(-171.471,-531.446,464.857,-149.986,1862.946,1663.4)"><stop stop-color="#008a80"/><stop offset="1" stop-color="#ebf855"/></linearGradient><clipPath clipPathUnits="userSpaceOnUse" id="cp8"><path d="m2401.49 1923.27c-27.08-115.27-30.63-265.4 34.72-443.66l-226.83-298.18c0 0 20.99 189.27 103.24 319.78 0 0-108.81 230.08-53.33 462.39 23.04 96.5 74.44 193.38 173.75 274.32 33.11-12.62 65.43-30.04 96.61-53.55 0 0-88.86-93.87-128.16-261.1z"/></clipPath><linearGradient id="g8" x2="1" href="#P" gradientTransform="matrix(69.568,-531.853,224.541,29.37,575.072,1784.457)"><stop stop-color="#00478f"/><stop offset="1" stop-color="#47eadf"/></linearGradient><clipPath clipPathUnits="userSpaceOnUse" id="cp9"><path d="m1876.34 2883.78c175.75-15.86 305.31-331.54 289.82-423.88-14.38 0.2-28.5-0.02-42.27-0.59z"/></clipPath><linearGradient id="g9" x2="1" href="#P" gradientTransform="matrix(166.369,-193.403,188.715,162.336,1568.625,2651.466)"><stop stop-color="#ffce4b"/><stop offset="1" stop-color="#f856bf"/></linearGradient><clipPath clipPathUnits="userSpaceOnUse" id="cp10"><path d="m2039.13 2695.42l-68.86 298.57c188-69.39 236.65-453.83 192.35-550.49-11.72 3.35-23.35 6.38-34.84 9.14l-54.03 92.64z"/></clipPath><linearGradient id="g10" x2="1" href="#P" gradientTransform="matrix(152.293,-212.17,186.082,133.567,1397.278,2514.605)"><stop stop-color="#ffce4b"/><stop offset="1" stop-color="#f856bf"/></linearGradient><clipPath clipPathUnits="userSpaceOnUse" id="cp11"><path d="m2095.2 2709.39l6.85 315.11c169.9-116.72 121.19-512.33 52.58-597.51q-8.88 5.16-17.74 10.03l-45.89 78.69z"/></clipPath><linearGradient id="g11" x2="1" href="#P" gradientTransform="matrix(137.502,-149.234,142.839,131.61,1368.124,2239.093)"><stop stop-color="#ffce4b"/><stop offset="1" stop-color="#f856bf"/></linearGradient><clipPath clipPathUnits="userSpaceOnUse" id="cp12"><path d="m2159.7 2683.99l73.18 286.61c130.53-142.8 1.97-494.1-78.84-557.39q-3.55 3.34-7.12 6.62l-38.03 65.2z"/></clipPath><linearGradient id="g12" x2="1" href="#P" gradientTransform="matrix(63.957,-152.499,112.12,47.022,1561.947,2565.492)"><stop stop-color="#ffce4b"/><stop offset="1" stop-color="#f856bf"/></linearGradient><clipPath clipPathUnits="userSpaceOnUse" id="cp13"><path d="m2190.87 2625.8l112.74 223.5c81.83-141.8-88.47-408.67-166.8-446.24l-1.38 2.01c7.02 8.48 11.49 14.76 11.49 14.76l-32.15 55.12z"/></clipPath><linearGradient id="g13" x2="1" href="#P" gradientTransform="matrix(-26.216,-177.691,122.99,-18.146,1874.837,2798.998)"><stop stop-color="#ffce4b"/><stop offset="1" stop-color="#f856bf"/></linearGradient><clipPath clipPathUnits="userSpaceOnUse" id="cp14"><path d="m1834.94 2015.89l-397.69 279.24c269.14 107 679.1-217.35 787.7-397.57-29.82-30.77-57.25-63.61-82.4-97.66z"/></clipPath><linearGradient id="g14" x2="1" href="#P" gradientTransform="matrix(-375.071,313.46,-306.063,-366.22,2004.219,2449.84)"><stop stop-color="#008a80"/><stop offset="1" stop-color="#ebf855"/></linearGradient><clipPath clipPathUnits="userSpaceOnUse" id="cp15"><path d="m1586.22 1708.92l-548.02 100.33c251.86 264.3 930.79 67.03 1058.29-76.68-14.85-23.46-28.7-47.19-41.69-70.93l-32.87-32.49z"/></clipPath><linearGradient id="g15" x2="1" href="#P" gradientTransform="matrix(-817.057,-101.495,52.489,-422.553,1770.3,2110.35)"><stop stop-color="#008a80"/><stop offset="1" stop-color="#ebf855"/></linearGradient><clipPath clipPathUnits="userSpaceOnUse" id="cp16"><path d="m1584.49 1539.2l-523.67-5.84c184.57 288.54 844.21 229.22 989.4 119.93-19.87-36.93-37.53-73.75-53.19-109.5z"/></clipPath><linearGradient id="g16" x2="1" href="#P" gradientTransform="matrix(-958.028,-151.07,64.893,-411.527,1915.416,1885.281)"><stop stop-color="#008a80"/><stop offset="1" stop-color="#ebf855"/></linearGradient><clipPath clipPathUnits="userSpaceOnUse" id="cp17"><path d="m2706.13 2073.49c0 0 153.46-16.16 253.62 92.07 0 0-14.54-93.69-53.31-121.15 66.83-174-135.93-315.2-320.21-284.8-294.45 48.58-535.83 707.55-514.97 950.34 197.89-183.11 564.88-294.04 634.87-636.46z"/></clipPath><linearGradient id="g17" x2="1" href="#P" gradientTransform="matrix(29.071,-794.819,751.138,27.473,1961.047,2540.334)"><stop stop-color="#003780"/><stop offset="1" stop-color="#d820d2"/></linearGradient><clipPath clipPathUnits="userSpaceOnUse" id="cp18"><path d="m2187.99 2080.78l-178.04 255.2c148.19 4.28 290.06-176.98 354.23-317.43-30.51-20.33-59.03-43-85.69-67.49z"/></clipPath><linearGradient id="g18" x2="1" href="#P" gradientTransform="matrix(-308.156,-92.111,96.911,-324.216,2186.312,2403.949)"><stop stop-color="#008a80"/><stop offset="1" stop-color="#ebf855"/></linearGradient><clipPath clipPathUnits="userSpaceOnUse" id="cp19"><path d="m2037.54 2065.48l-266.27 273.71c202.11 39.16 441.59-211.01 528.05-373.85-30.84-24.65-59.57-51.61-86.28-80.27z"/></clipPath><linearGradient id="g19" x2="1" href="#P" gradientTransform="matrix(-284.695,424.542,-430.282,-288.544,2292.606,2338.206)"><stop stop-color="#008a80"/><stop offset="1" stop-color="#ebf855"/></linearGradient><clipPath clipPathUnits="userSpaceOnUse" id="cp20"><path d="m1663.56 1892.33l-512.99 217.33c294.55 197.14 887.15-117.99 1006.7-290.31-20.72-26.72-40-54.29-57.9-82.29l-27.96-17.52z"/></clipPath><linearGradient id="g20" x2="1" href="#P" gradientTransform="matrix(-650.585,375.276,-325.769,-564.758,1914.327,2255.393)"><stop stop-color="#008a80"/><stop offset="1" stop-color="#ebf855"/></linearGradient><clipPath clipPathUnits="userSpaceOnUse" id="cp21"><path d="m1635.09 1385.32l-457.15-91.44c110.17 273.59 662.83 335.74 830.16 274.65-18.83-41.06-35-81-48.8-118.37z"/></clipPath><linearGradient id="g21" x2="1" href="#P" gradientTransform="matrix(-633.449,-375.99,302.595,-509.796,1798.616,1791.951)"><stop stop-color="#008a80"/><stop offset="1" stop-color="#ebf855"/></linearGradient><clipPath clipPathUnits="userSpaceOnUse" id="cp22"><path d="m2351.47 1927.11c-127.4-90.37-261.94-235.76-352.91-469.1l-484.62-96.93c0 0 185.98 168.87 381.24 226.16 0 0 93.2 322.54 350.85 503.88 107.02 75.33 242.42 126.29 411.29 119.66 21.73-41.39 38.49-86.83 48.81-137.29 0 0-169.83-15.29-354.66-146.38z"/></clipPath><linearGradient id="g22" x2="1" href="#P" gradientTransform="matrix(-395.371,-586.731,625.455,-421.465,1912.547,2380.732)"><stop stop-color="#00478f"/><stop offset="1" stop-color="#47eadf"/></linearGradient></defs><style>.a{display:none;fill:#fff}.b{fill:url(#g1)}.c{fill:#005b50}.d{fill:url(#g2)}.e{fill:url(#g3)}.f{fill:url(#g4)}.g{fill:url(#g5)}.h{fill:url(#g6)}.i{fill:url(#g7)}.j{fill:url(#g8)}.k{fill:#5ef9f6}.l{fill:url(#g9)}.m{fill:url(#g10)}.n{fill:url(#g11)}.o{fill:url(#g12)}.p{fill:url(#g13)}.q{fill:url(#g14)}.r{fill:url(#g15)}.s{fill:url(#g16)}.t{fill:url(#g17)}.u{fill:#003780}.v{fill:#fce2a6}.w{fill:url(#g18)}.x{fill:url(#g19)}.y{fill:url(#g20)}.z{fill:url(#g21)}.A{fill:url(#g22)}</style><path class="a" d="m4000 3999.5h-4000v-4000h4000z"/><g clip-path="url(#cp1)"><path class="b" d="m2002.3 2061.1h360.5v-160.8h-360.5z"/></g><path class="c" d="m2231.5 1928.6l-229.2 55.8c0 0 195.4 32 349.2-57.3q-2.1-13.4-3.5-26.8z"/><g clip-path="url(#cp2)"><path class="d" d="m1865 1990.1h487.7v-160.2h-487.7z"/></g><g clip-path="url(#cp3)"><path class="e" d="m1697.2 1891h649.4v-217.1h-649.4z"/></g><g clip-path="url(#cp4)"><path class="f" d="m1627.3 1802.6h726.2v-378h-726.2z"/></g><g clip-path="url(#cp5)"><path class="g" d="m1714.2 1702.5h651.8v-505h-651.8z"/></g><g clip-path="url(#cp6)"><path class="h" d="m1825.6 1616.5h566.7v-564.4h-566.7z"/></g><g clip-path="url(#cp7)"><path class="i" d="m1977.5 1547.2h440.3v-572.5h-440.3z"/></g><g clip-path="url(#cp8)"><path class="j" d="m2203.8 2237.9h325.8v-1056.5h-325.8z"/></g><path class="k" d="m2401.5 1923.3c-27.1-115.3-30.6-265.4 34.7-443.7l-226.8-298.2c0 0 109.6 165.3 191.9 295.9 0 0-108.9 230-53.4 462.3 21.8 91.4 69 183.1 158.2 261.2q11.9-7.6 23.5-16.4c0 0-88.8-93.9-128.1-261.1z"/><path class="c" d="m1865.4 1052.1c0 0 130.9 312 439.2 467.9 3.9-9.6 6.6-15.8 7.6-17.9-65.1-50.5-141.4-132.9-196.6-224.3z"/><path class="c" d="m2280.3 1589c-88.2-41.4-203.6-125.1-290.7-225.6l-275.4-165.9c0 0 274.8 322.5 555 431.2 3.6-14.2 7.4-27.5 11.1-39.7z"/><path class="c" d="m1627.3 1424.6c0 0 307.2 233 625.7 282.8 1.8-11.3 3.7-22.3 5.8-33-85.4-21-198.2-70.5-299.1-138.7z"/><path class="c" d="m1697.2 1673.9c0 0 203.7 147.1 547 120.1q0.5-11.7 1.4-23.2c-86.3-4.5-199.3-28-305.5-69.9z"/><path class="c" d="m1865 1866.5c0 0 192.8 54.6 382.5 29.3q-2-17.4-2.9-34.5c-64.5 5.9-141.6 4.4-218-7.2z"/><g clip-path="url(#cp9)"><path class="l" d="m1876.3 2883.8h305.3v-424.5h-305.3z"/></g><g clip-path="url(#cp10)"><path class="m" d="m1970.3 2994h236.6v-550.5h-236.6z"/></g><g clip-path="url(#cp11)"><path class="n" d="m2091 3024.5h181v-597.5h-181z"/></g><g clip-path="url(#cp12)"><path class="o" d="m2108.9 2970.6h254.5v-557.4h-254.5z"/></g><g clip-path="url(#cp13)"><path class="p" d="m2114.8 2849.3h270.6v-446.2h-270.6z"/></g><g clip-path="url(#cp14)"><path class="q" d="m1437.2 2402.1h787.7v-602.2h-787.7z"/></g><g clip-path="url(#cp15)"><path class="r" d="m1038.2 2073.5h1058.3v-444.3h-1058.3z"/></g><g clip-path="url(#cp16)"><path class="s" d="m1060.8 1821.9h989.4v-288.5h-989.4z"/></g><g clip-path="url(#cp17)"><path class="t" d="m2050.4 2710h922.9v-980.8h-922.9z"/></g><path class="u" d="m2112.2 2425.7c86.2-181.1 327.9-213.1 458.6-216.6-102.6-8.3-191.4-38.7-267.7-81.8-18.8-10.7-36.8-22.1-54.1-34.1q-1.5-1.1-3-2.1-8.2 15.3-16 30.9c-26.3 52-49.9 106.3-70.5 160.5-18.3 48.3-34.2 96.6-47.3 143.2z"/><path class="v" d="m2351.5 1927.1c0 0 286-180.1 559.6-3.1-36.4-112.7-185.9-187.3-324.9-164.4-84.2 13.9-164.1 77.7-234.7 167.5z"/><g clip-path="url(#cp18)"><path class="w" d="m2010 2340.3h354.2v-389.2h-354.2z"/></g><path class="c" d="m2188 2080.8l-178 255.2c0 0 221.2-138.9 295.3-361.4q-13.7-11.5-26.8-23.5z"/><g clip-path="url(#cp19)"><path class="x" d="m1771.3 2378.3h528v-493.2h-528z"/></g><g clip-path="url(#cp20)"><path class="y" d="m1150.6 2306.8h1006.7v-587.3h-1006.7z"/></g><g clip-path="url(#cp21)"><path class="z" d="m1177.9 1629.6h830.2v-335.7h-830.2z"/></g><g clip-path="url(#cp22)"><path class="A" d="m1513.9 2217.4h1192.2v-856.3h-1192.2z"/></g><path class="k" d="m2351.5 1927.1c-127.4-90.4-262-235.7-352.9-469.1l-484.7-96.9c0 0 252.8 67.8 448 125.1 0 0 93.2 322.5 350.9 503.9 101.3 71.3 228 120.7 384.4 120.2q5.1-18 8.9-36.8c0 0-169.8-15.3-354.6-146.4z"/><path class="c" d="m1060.8 1533.4c0 0 401.8 194.4 842.8 79.5-4.5-13-7.2-21.5-8.1-24.5-108.4 6.9-255.8-7.9-390.2-50.1z"/><path class="c" d="m1939.8 1702.3c-123.3 36-310.5 54-484.4 30.6l-417.2 76.3c0 0 553.2 79.1 925.3-57.9-8.8-17.2-16.7-33.7-23.7-49z"/><path class="c" d="m1150.6 2109.7c0 0 507.1-37.7 865.6-266.4-8.1-12.8-15.8-25.4-23-37.8-102.9 53.7-257.7 103.3-417 123.8z"/><path class="c" d="m1437.2 2295.1c0 0 329.9-32.2 645.9-358.5q-9.8-12.1-18.9-24.2c-89.3 70.9-221.5 146.3-363.1 197.5z"/><path class="c" d="m1771.3 2339.2c0 0 238.3-114.2 403.8-304.9q-17-15.4-32.9-31.5c-58.6 62.1-136.2 127.9-221.8 183.1z"/></svg>